# xmcd CD database file
#
# Track frame offsets:
#	150
#	26567
#	39243
#	63783
#	75568
#	98083
#	112433
#	125925
#	142178
#	154482
#	168274
#	198445
#	211249
#	224649
#	238126
#	263326
#	276168
#
# Disc length: 3939 seconds
#
# Revision: 0
# Processed by: cddbd v1.5.2PL0 Copyright (c) Steve Scherf et al.
# Submitted via: CDex 1.70beta3
#
DISCID=010f6111
DTITLE=Various Artist - Jazz For You 3 Mona Lisa
DYEAR=2012
DGENRE=Jazz
TTITLE0=Desafinado - Stan Getz and Charlie Byrd
TTITLE1=A Lover's Concerto - Sarah Vaughan
TTITLE2=Satin Doll - Oscar Peterson
TTITLE3=Mas Que Nada (Mais Que Nada) - Sergio Mendes and Brasil '66
TTITLE4=Summertime - Ella Fitzgerald and Louis Armstrong
TTITLE5=Speak Low - Carmen McRae
TTITLE6=It Never Entered My Mind - Bud Powell
TTITLE7=Memories Of You - Clifford Brown
TTITLE8=The Girl From Ipanema - Antonio Carlos Jobim
TTITLE9=Mona Lisa - Bing Crosby
TTITLE10=In A Sentimental Mood - Tommy Flanagan
TTITLE11=Generique - Miles Davis
TTITLE12=I Loves You Porgy - Billie Holiday
TTITLE13='S Wonderful - Fred Astaire
TTITLE14=I Remember Clifford - Art Blakey's Jazz Messengers
TTITLE15=Beach Samba - Astrud Gilberto
TTITLE16=Say It (Over And Over Again) - John Coltrane
EXTD=YEAR: 2012
EXTT0=
EXTT1=
EXTT2=
EXTT3=
EXTT4=
EXTT5=
EXTT6=
EXTT7=
EXTT8=
EXTT9=
EXTT10=
EXTT11=
EXTT12=
EXTT13=
EXTT14=
EXTT15=
EXTT16=
PLAYORDER=
